<?xml version="1.0" encoding="utf-8"?>
<!-- Generator: Adobe Illustrator 23.0.3, SVG Export Plug-In . SVG Version: 6.00 Build 0)  -->
<svg version="1.1" id="Layer_1" xmlns="http://www.w3.org/2000/svg" xmlns:xlink="http://www.w3.org/1999/xlink" x="0px" y="0px"
	 viewBox="0 0 69.8 69.8" style="enable-background:new 0 0 69.8 69.8;" xml:space="preserve">
<style type="text/css">
	.st0{fill:none;stroke:#004276;stroke-width:4;stroke-linecap:round;stroke-linejoin:round;}
	.st1{enable-background:new    ;}
	.st2{fill:#004276;}
	
		.st3{opacity:0.75;fill:none;stroke:#004276;stroke-width:3;stroke-linecap:round;stroke-linejoin:round;enable-background:new    ;}
</style>
<title>pdf-article</title>
<polyline class="st0" points="48.7,33.1 48.7,21 30.4,2.7 3,2.7 3,66.7 18.7,66.7 "/>
<polyline class="st0" points="30.4,2.7 30.4,21 48.7,21 "/>
<g class="st1">
	<path class="st2" d="M31.1,57.8V46.5H36c0.5,0,1,0.1,1.4,0.3s0.8,0.5,1.1,0.9c0.3,0.4,0.6,0.8,0.8,1.2c0.2,0.5,0.3,0.9,0.3,1.4
		c0,0.5-0.1,0.9-0.3,1.4c-0.2,0.5-0.4,0.9-0.7,1.2c-0.3,0.4-0.7,0.6-1.1,0.8C37,53.9,36.6,54,36,54h-2.7v3.8H31.1z M33.4,52.1h2.6
		c0.4,0,0.7-0.2,1-0.5c0.3-0.3,0.4-0.8,0.4-1.3c0-0.3,0-0.5-0.1-0.8c-0.1-0.2-0.2-0.4-0.3-0.6c-0.1-0.2-0.3-0.3-0.5-0.4
		s-0.4-0.1-0.6-0.1h-2.5V52.1z"/>
	<path class="st2" d="M41.1,57.8V46.5h4.1c0.9,0,1.7,0.1,2.4,0.4c0.7,0.3,1.3,0.7,1.8,1.2c0.5,0.5,0.8,1.1,1.1,1.8
		c0.2,0.7,0.4,1.4,0.4,2.2c0,0.9-0.1,1.6-0.4,2.3c-0.3,0.7-0.6,1.3-1.1,1.8c-0.5,0.5-1.1,0.9-1.8,1.2c-0.7,0.3-1.5,0.4-2.3,0.4H41.1
		z M48.6,52.1c0-0.5-0.1-1-0.2-1.5c-0.1-0.5-0.4-0.9-0.7-1.2c-0.3-0.3-0.6-0.6-1.1-0.8c-0.4-0.2-0.9-0.3-1.4-0.3h-1.9v7.5h1.9
		c0.5,0,1-0.1,1.4-0.3c0.4-0.2,0.8-0.5,1.1-0.8c0.3-0.3,0.5-0.7,0.6-1.2C48.5,53.2,48.6,52.7,48.6,52.1z"/>
</g>
<g class="st1">
	<path class="st2" d="M52.6,57.8V46.5h7.6v1.9h-5.4v2.9h4.5v1.8h-4.5v4.7H52.6z"/>
</g>
<path class="st3" d="M25.6,38.6h39.7c0.9,0,1.6,0.7,1.6,1.6V65c0,0.9-0.7,1.6-1.6,1.6H25.6c-0.9,0-1.6-0.7-1.6-1.6V40.3
	C24,39.4,24.7,38.6,25.6,38.6z"/>
</svg>
